<?xml version="1.0" encoding="UTF-8"?>
<svg id="Calque_2" data-name="Calque 2" xmlns="http://www.w3.org/2000/svg" viewBox="0 0 16.67 72.67">
  <defs>
    <style>
      .cls-1 {
        fill: #fff;
      }
    </style>
  </defs>
  <g id="Calque_1-2" data-name="Calque 1">
    <g>
      <path class="cls-1" d="m8.33,72.67c-.55,0-1-.45-1-1V1c0-.55.45-1,1-1s1,.45,1,1v70.67c0,.55-.45,1-1,1Z"/>
      <path class="cls-1" d="m8.33,72.67c-.21,0-.43-.07-.61-.21l-7.33-5.61c-.44-.34-.52-.96-.19-1.4.34-.44.96-.52,1.4-.19l6.73,5.14,6.73-5.14c.44-.34,1.07-.25,1.4.19.34.44.25,1.07-.19,1.4l-7.33,5.61c-.18.14-.39.21-.61.21Z"/>
    </g>
  </g>
</svg>