<?xml version="1.0" encoding="UTF-8"?>
<svg id="Calque_2" data-name="Calque 2" xmlns="http://www.w3.org/2000/svg" viewBox="0 0 66.11 86.85">
  <defs>
    <style>
      .cls-1 {
        fill: #fff;
      }
    </style>
  </defs>
  <g id="Calque_1-2" data-name="Calque 1">
    <path class="cls-1" d="m0,43.45C0,31.22,0,19,0,6.77,0,2.48,2.5.01,6.81.02,19.57.02,32.33.03,45.09,0c.87,0,1.48.26,2.09.87,6.05,6.09,12.12,12.16,18.21,18.21.53.53.72,1.06.72,1.8-.03,7.06-.03,14.13-.03,21.19,0,12.68.01,25.37.02,38.05,0,4.22-2.52,6.73-6.72,6.73-17.55,0-35.1,0-52.64,0C2.52,86.85,0,84.34,0,80.12c0-10.29.01-20.59.02-30.88,0-1.93,0-3.86,0-5.8,0,0-.01,0-.02,0Zm62.05-20.77c-.54,0-.95,0-1.36,0-3.57,0-7.14,0-10.71,0-3.95,0-6.49-2.53-6.5-6.47-.01-3.65-.04-7.29.02-10.94.02-1.02-.3-1.26-1.29-1.26-11.74.03-23.47.02-35.21.02-2.33,0-2.95.63-2.95,2.98,0,16.33,0,32.65,0,48.98,0,8.05,0,16.1,0,24.16,0,1.96.72,2.68,2.68,2.68,17.55,0,35.09,0,52.64,0,1.96,0,2.68-.72,2.68-2.68.01-13.09.03-26.18.04-39.27,0-5.58-.02-11.17-.03-16.75,0-.44,0-.89,0-1.45Zm-3.2-4.07c-3.81-3.82-7.54-7.56-11.28-11.31,0,3.22-.06,6.49.04,9.76.02.89.81,1.52,1.73,1.53,3.17.05,6.34.02,9.51.02Z"/>
  </g>
</svg>