<?xml version="1.0" encoding="UTF-8"?>
<svg id="Calque_2" data-name="Calque 2" xmlns="http://www.w3.org/2000/svg" viewBox="0 0 66.11 71.6">
  <defs>
    <style>
      .cls-1, .cls-2 {
        fill: #fffffd;
      }

      .cls-2 {
        fill-rule: evenodd;
      }
    </style>
  </defs>
  <g id="Calque_1-2" data-name="Calque 1">
    <g>
      <path class="cls-1" d="m60.73,71.6H5.38c-1.43,0-2.78-.56-3.8-1.58C.56,69,0,67.65,0,66.22V18.97h66.11v47.25c0,1.43-.56,2.78-1.58,3.8-1.02,1.02-2.37,1.58-3.8,1.58ZM1.53,20.5v45.72c0,1.02.4,1.98,1.13,2.71.73.73,1.69,1.13,2.71,1.13h55.35c1.02,0,1.98-.4,2.71-1.13.73-.73,1.13-1.69,1.13-2.71V20.5H1.53Zm35.3,40.44h-7.55c-1.05,0-1.91-.85-1.91-1.91s.85-1.91,1.91-1.91h7.55c1.05,0,1.91.85,1.91,1.91s-.85,1.91-1.91,1.91Zm-7.55-2.28c-.21,0-.37.17-.37.37s.17.37.37.37h7.55c.21,0,.37-.17.37-.37s-.17-.37-.37-.37h-7.55Zm-14.56,2.28h-7.55c-1.05,0-1.91-.85-1.91-1.91s.85-1.91,1.91-1.91h7.55c1.05,0,1.91.85,1.91,1.91s-.85,1.91-1.91,1.91Zm-7.55-2.28c-.21,0-.37.17-.37.37s.17.37.37.37h7.55c.21,0,.37-.17.37-.37s-.17-.37-.37-.37h-7.55Zm51.76-7.97h-7.55c-1.05,0-1.91-.85-1.91-1.91s.85-1.91,1.91-1.91h7.55c1.05,0,1.91.85,1.91,1.91s-.85,1.91-1.91,1.91Zm-7.55-2.28c-.21,0-.37.17-.37.37s.17.37.37.37h7.55c.21,0,.37-.17.37-.37s-.17-.37-.37-.37h-7.55Zm-14.56,2.28h-7.55c-1.05,0-1.91-.85-1.91-1.91s.85-1.91,1.91-1.91h7.55c1.05,0,1.91.85,1.91,1.91s-.85,1.91-1.91,1.91Zm-7.55-2.28c-.21,0-.37.17-.37.37s.17.37.37.37h7.55c.21,0,.37-.17.37-.37s-.17-.37-.37-.37h-7.55Zm-14.56,2.28h-7.55c-1.05,0-1.91-.85-1.91-1.91s.85-1.91,1.91-1.91h7.55c1.05,0,1.91.85,1.91,1.91s-.85,1.91-1.91,1.91Zm-7.55-2.28c-.21,0-.37.17-.37.37s.17.37.37.37h7.55c.21,0,.37-.17.37-.37s-.17-.37-.37-.37h-7.55Zm51.76-7.97h-7.55c-1.05,0-1.91-.85-1.91-1.91s.85-1.91,1.91-1.91h7.55c1.05,0,1.91.85,1.91,1.91s-.85,1.91-1.91,1.91Zm-7.55-2.28c-.21,0-.37.17-.37.37s.17.37.37.37h7.55c.21,0,.37-.17.37-.37s-.17-.37-.37-.37h-7.55Zm-14.56,2.28h-7.55c-1.05,0-1.91-.85-1.91-1.91s.85-1.91,1.91-1.91h7.55c1.05,0,1.91.85,1.91,1.91s-.85,1.91-1.91,1.91Zm-7.55-2.28c-.21,0-.37.17-.37.37s.17.37.37.37h7.55c.21,0,.37-.17.37-.37s-.17-.37-.37-.37h-7.55Zm-14.56,2.28h-7.55c-1.05,0-1.91-.85-1.91-1.91s.85-1.91,1.91-1.91h7.55c1.05,0,1.91.85,1.91,1.91s-.85,1.91-1.91,1.91Zm-7.55-2.28c-.21,0-.37.17-.37.37s.17.37.37.37h7.55c.21,0,.37-.17.37-.37s-.17-.37-.37-.37h-7.55Zm51.76-7.97h-7.55c-1.05,0-1.91-.85-1.91-1.91s.85-1.91,1.91-1.91h7.55c1.05,0,1.91.85,1.91,1.91s-.85,1.91-1.91,1.91Zm-7.55-2.28c-.21,0-.37.17-.37.37s.17.37.37.37h7.55c.21,0,.37-.17.37-.37s-.17-.37-.37-.37h-7.55Zm-14.56,2.28h-7.55c-1.05,0-1.91-.85-1.91-1.91s.85-1.91,1.91-1.91h7.55c1.05,0,1.91.85,1.91,1.91s-.85,1.91-1.91,1.91Zm-7.55-2.28c-.21,0-.37.17-.37.37s.17.37.37.37h7.55c.21,0,.37-.17.37-.37s-.17-.37-.37-.37h-7.55Z"/>
      <g>
        <path class="cls-2" d="m48.09,6.2h-12.12v2.7c0,1.61-1.31,2.92-2.92,2.92s-2.92-1.31-2.92-2.92v-2.7h-12.12v2.7c0,1.61-1.31,2.92-2.92,2.92s-2.92-1.31-2.92-2.92v-2.7h-7.47c-1.3,0-2.48.53-3.33,1.39-.86.86-1.39,2.04-1.39,3.33v6.75h66.11v-6.75c0-1.3-.53-2.48-1.39-3.33-.86-.86-2.04-1.39-3.33-1.39h-7.47v2.7c0,1.61-1.31,2.92-2.92,2.92s-2.92-1.31-2.92-2.92v-2.7Z"/>
        <path class="cls-1" d="m16.27,1.17c0-.64-.52-1.17-1.17-1.17s-1.17.52-1.17,1.17v7.73c0,.64.52,1.17,1.17,1.17s1.17-.52,1.17-1.17V1.17h0Zm35.89,0c0-.64-.52-1.17-1.17-1.17s-1.17.52-1.17,1.17v7.73c0,.64.52,1.17,1.17,1.17s1.17-.52,1.17-1.17V1.17h0Zm-17.95,0c0-.64-.52-1.17-1.17-1.17s-1.17.52-1.17,1.17v7.73c0,.64.52,1.17,1.17,1.17s1.17-.52,1.17-1.17V1.17Z"/>
      </g>
    </g>
  </g>
</svg>