<?xml version="1.0" encoding="UTF-8"?>
<svg id="Calque_2" data-name="Calque 2" xmlns="http://www.w3.org/2000/svg" viewBox="0 0 91.11 75.94">
  <defs>
    <style>
      .cls-1 {
        fill: #fff;
        fill-rule: evenodd;
      }
    </style>
  </defs>
  <g id="Calque_1-2" data-name="Calque 1">
    <path class="cls-1" d="m69.28,70.16v-11.82l5.5-3.56c2.35-1.53,3.78-4.15,3.78-6.95v-7.83l10.2-6.34c.68-.41,1.25-.96,1.69-1.6.43-.63.65-1.38.66-2.15-.01-.75-.24-1.48-.65-2.12-.43-.65-.98-1.19-1.65-1.6L50.25,1.28s-.01-.01-.03-.01C48.82.41,47.2-.03,45.56,0c-1.65-.03-3.26.41-4.66,1.26-.01,0-.03.01-.03.01L2.29,26.2c-.66.41-1.22.96-1.65,1.6-.41.63-.63,1.37-.65,2.12.01.76.24,1.51.66,2.15.44.65,1.01,1.19,1.69,1.6l10.2,6.34v7.87c.03,1.35.41,2.69,1.09,3.87.62,1.22,1.53,2.25,2.66,3.03.01,0,.01.01.03.01l25.31,16.38s.01.01.03.03c1.16.71,2.51,1.07,3.88,1.04,1.37.03,2.72-.34,3.88-1.04.01-.01.03-.01.03-.03l16.88-10.92v9.92l-3.28,3.28c-.26.28-.43.65-.43,1.03s.16.76.43,1.04c.28.28.66.43,1.04.43s.76-.15,1.04-.43l2.66-2.66,2.68,2.66c.28.28.65.43,1.04.43s.76-.15,1.04-.43c.26-.28.43-.65.43-1.04s-.16-.75-.43-1.03l-3.29-3.28Zm0-24.39l6.34-3.94v6c0,1.81-.91,3.5-2.44,4.48l-3.9,2.52v-9.07Zm-2.94,1.83l-16.07,9.99s-.03.01-.04.03c-1.41.82-3.03,1.25-4.67,1.21-1.65.04-3.26-.38-4.67-1.21-.01-.01-.03-.01-.04-.03l-25.34-15.76v5.97c.01.9.28,1.76.73,2.54.4.79.99,1.48,1.72,1.98l25.27,16.36c.71.43,1.51.63,2.34.6.82.03,1.63-.18,2.34-.6l18.45-11.95v-9.14Zm1.62-4.47l19.26-11.98s.03,0,.03-.01c.31-.18.56-.43.76-.71.1-.16.15-.34.16-.51-.01-.18-.06-.35-.16-.51-.19-.28-.44-.53-.73-.71-.01-.01-.03-.01-.03-.03L48.67,3.76c-.94-.57-2.01-.85-3.12-.82-1.1-.03-2.18.25-3.12.82L3.87,28.67s-.01.01-.03.03c-.29.18-.54.43-.73.71-.1.16-.15.34-.16.51.01.18.06.35.16.51.21.28.46.53.76.71,0,.01.01.01.03.01l38.49,23.95c.96.56,2.06.84,3.18.79,1.12.04,2.22-.24,3.18-.79l16.49-10.26-20.47-13.66c-.34-.22-.56-.56-.63-.94-.07-.38,0-.78.22-1.1.22-.32.54-.54.93-.62.38-.09.78,0,1.1.21l21.6,14.41Z"/>
  </g>
</svg>