<?xml version="1.0" encoding="UTF-8"?>
<svg id="Calque_2" data-name="Calque 2" xmlns="http://www.w3.org/2000/svg" viewBox="0 0 300 300">
  <defs>
    <style>
      .cls-1 {
        fill: #fff;
      }

      .cls-2 {
        fill: #08113b;
      }
    </style>
  </defs>
  <g id="Calque_1-2" data-name="Calque 1">
    <g>
      <rect class="cls-2" width="300" height="300"/>
      <g>
        <g>
          <path class="cls-1" d="m61.99,144.81c0,4.22,1.31,7.79,3.94,10.7,2.62,2.91,5.91,5.54,9.85,7.88,3.94,2.34,8.19,4.68,12.75,7.02,4.56,2.34,8.82,5.05,12.76,8.13,3.94,3.08,7.22,6.82,9.85,11.21,2.62,4.4,3.94,9.79,3.94,16.18,0,9.36-2.94,16.78-8.82,22.26-5.88,5.48-14.3,8.22-25.25,8.22s-19.24-2.74-25.17-8.22c-5.94-5.48-8.9-12.9-8.9-22.26h15.07c0,5.25.54,9.67,1.63,13.27,1.08,3.59,2.51,6.5,4.28,8.73,1.77,2.23,3.79,3.83,6.08,4.79,2.28.97,4.62,1.46,7.02,1.46s4.74-.48,7.02-1.46c2.28-.97,4.31-2.57,6.08-4.79,1.77-2.23,3.19-5.14,4.28-8.73,1.08-3.6,1.63-8.02,1.63-13.27s-1.31-9.59-3.94-13.01c-2.63-3.42-5.91-6.45-9.84-9.07-3.94-2.62-8.19-5.05-12.76-7.28-4.57-2.22-8.82-4.76-12.75-7.62-3.94-2.85-7.22-6.25-9.85-10.19-2.63-3.94-3.94-8.93-3.94-14.98,0-8.79,2.97-15.89,8.9-21.32,5.93-5.42,14.32-8.13,25.17-8.13s19.38,2.77,25.25,8.3c5.88,5.54,8.82,12.93,8.82,22.17h-15.07c0-5.25-.54-9.67-1.63-13.27-1.09-3.6-2.51-6.51-4.28-8.73-1.77-2.22-3.8-3.82-6.08-4.79-2.29-.97-4.62-1.46-7.02-1.46s-4.74.49-7.02,1.46c-2.28.97-4.31,2.57-6.08,4.79-1.77,2.23-3.2,5.14-4.28,8.73-1.09,3.6-1.63,8.02-1.63,13.27Z"/>
          <path class="cls-1" d="m176.37,232.82v2.4h-47.94v-119.68h47.09v2.4h-32.02v49.82h26.03v2.4h-26.03v62.67h32.87Z"/>
          <path class="cls-1" d="m253.07,235.22h-15.07v-28.59h-38.01v28.59h-15.07v-89.72c0-9.25,2.97-16.63,8.9-22.17,5.93-5.54,14.32-8.3,25.17-8.3s19.23,2.77,25.17,8.3c5.93,5.54,8.9,12.93,8.9,22.17v89.72Zm-15.07-89.72c0-5.25-.54-9.67-1.63-13.27-1.09-3.6-2.51-6.51-4.28-8.73-1.77-2.23-3.8-3.82-6.08-4.79-2.29-.97-4.62-1.46-7.02-1.46s-4.74.49-7.02,1.46c-2.28.97-4.31,2.57-6.08,4.79-1.77,2.23-3.2,5.14-4.28,8.73-1.09,3.6-1.63,8.02-1.63,13.27v58.73h38.01v-58.73Z"/>
        </g>
        <rect class="cls-1" x="46.8" y="242.25" width="206.4" height="4.8"/>
        <path class="cls-1" d="m150,58.35c38.81,0,72.31,23.44,87.37,57.06,2.87,1.24,5.46,2.83,7.74,4.75-14.2-39.18-51.48-67.21-95.11-67.21s-80.14,27.46-94.66,66.01c2.28-1.82,4.86-3.31,7.72-4.48,15.26-33.12,48.49-56.13,86.94-56.13Z"/>
      </g>
    </g>
  </g>
</svg>