<?xml version="1.0" encoding="UTF-8"?>
<svg id="Calque_2" data-name="Calque 2" xmlns="http://www.w3.org/2000/svg" viewBox="0 0 123.45 145.42">
  <defs>
    <style>
      .cls-1 {
        fill: #6d071a;
      }
    </style>
  </defs>
  <g id="Calque_1-2" data-name="Calque 1">
    <g>
      <g>
        <g>
          <path class="cls-1" d="m9.09,54.94c0,2.53.78,4.66,2.35,6.4,1.57,1.74,3.53,3.31,5.89,4.71,2.35,1.4,4.9,2.8,7.63,4.2,2.73,1.4,5.27,3.02,7.63,4.86,2.36,1.84,4.32,4.08,5.89,6.71,1.57,2.63,2.35,5.85,2.35,9.68,0,5.6-1.76,10.04-5.27,13.31-3.52,3.28-8.55,4.91-15.1,4.91s-11.5-1.64-15.05-4.91C1.85,101.54.08,97.1.08,91.5h9.01c0,3.14.32,5.79.97,7.94.65,2.15,1.5,3.89,2.56,5.22,1.06,1.33,2.27,2.29,3.64,2.87,1.36.58,2.77.87,4.2.87s2.83-.29,4.2-.87c1.36-.58,2.58-1.54,3.64-2.87,1.06-1.33,1.91-3.07,2.56-5.22.65-2.15.97-4.8.97-7.94s-.79-5.74-2.36-7.78c-1.57-2.05-3.53-3.86-5.89-5.43-2.36-1.57-4.9-3.02-7.63-4.35-2.73-1.33-5.27-2.85-7.63-4.56-2.36-1.71-4.32-3.74-5.89-6.09C.86,60.93.08,57.95.08,54.33c0-5.26,1.77-9.51,5.32-12.75,3.55-3.24,8.57-4.86,15.05-4.86s11.59,1.66,15.1,4.97c3.52,3.31,5.27,7.73,5.27,13.26h-9.01c0-3.14-.32-5.79-.97-7.94-.65-2.15-1.5-3.89-2.56-5.22-1.06-1.33-2.27-2.29-3.64-2.87-1.37-.58-2.77-.87-4.2-.87s-2.83.29-4.2.87c-1.37.58-2.58,1.54-3.64,2.87-1.06,1.33-1.91,3.07-2.56,5.22-.65,2.15-.97,4.8-.97,7.94Z"/>
          <path class="cls-1" d="m77.49,107.58v1.43h-28.67V37.43h28.16v1.43h-19.15v29.8h15.57v1.43h-15.57v37.48h19.66Z"/>
          <path class="cls-1" d="m123.37,109.01h-9.01v-17.1h-22.73v17.1h-9.01v-53.66c0-5.53,1.77-9.95,5.32-13.26,3.55-3.31,8.57-4.97,15.05-4.97s11.5,1.66,15.05,4.97c3.55,3.31,5.32,7.73,5.32,13.26v53.66Zm-9.01-53.66c0-3.14-.33-5.79-.97-7.94-.65-2.15-1.5-3.89-2.56-5.22-1.06-1.33-2.27-2.29-3.63-2.87-1.37-.58-2.77-.87-4.2-.87s-2.83.29-4.2.87c-1.37.58-2.58,1.54-3.64,2.87-1.06,1.33-1.91,3.07-2.56,5.22-.65,2.15-.97,4.8-.97,7.94v35.13h22.73v-35.13Z"/>
        </g>
        <rect class="cls-1" y="113.22" width="123.45" height="2.87"/>
        <path class="cls-1" d="m61.72,3.23c23.21,0,43.25,14.02,52.25,34.12,1.72.74,3.27,1.69,4.63,2.84C110.11,16.77,87.82,0,61.72,0S13.79,16.42,5.11,39.48c1.37-1.09,2.91-1.98,4.62-2.68C18.85,16.99,38.72,3.23,61.72,3.23Z"/>
      </g>
      <g>
        <path class="cls-1" d="m22.49,143.6h11.08v1.68h-13.02v-18.42h12.63v1.68h-10.68v15.05Zm-.21-8.5h9.73v1.66h-9.73v-1.66Z"/>
        <path class="cls-1" d="m41.01,145.28l-6.13-13.81h1.95l5.63,12.81h-.92l5.71-12.81h1.84l-6.16,13.81h-1.92Z"/>
        <path class="cls-1" d="m57.19,145.42c-1.44,0-2.7-.3-3.79-.91-1.09-.61-1.94-1.44-2.55-2.5-.61-1.06-.92-2.28-.92-3.64s.29-2.58.88-3.63c.59-1.05,1.39-1.88,2.42-2.49s2.18-.91,3.46-.91,2.45.29,3.46.88c1.01.59,1.8,1.41,2.38,2.47.58,1.06.87,2.28.87,3.67,0,.09,0,.18-.01.28,0,.1-.01.2-.01.3h-12.02v-1.39h11.02l-.74.55c0-1-.21-1.89-.64-2.67-.43-.78-1.01-1.39-1.75-1.83-.74-.44-1.59-.66-2.55-.66s-1.8.22-2.55.66c-.75.44-1.34,1.05-1.76,1.84s-.63,1.69-.63,2.71v.29c0,1.05.23,1.98.7,2.78.46.8,1.11,1.42,1.95,1.87.83.45,1.78.67,2.85.67.84,0,1.63-.15,2.35-.45.73-.3,1.35-.75,1.88-1.37l1.05,1.21c-.61.74-1.38,1.3-2.3,1.68-.92.39-1.93.58-3.04.58Z"/>
        <path class="cls-1" d="m74.26,131.34c1.12,0,2.11.21,2.96.64.85.43,1.52,1.08,2,1.96.48.88.72,1.98.72,3.31v8.02h-1.87v-7.84c0-1.46-.36-2.56-1.09-3.3-.73-.75-1.75-1.12-3.06-1.12-.98,0-1.84.2-2.56.59-.73.4-1.29.96-1.68,1.71-.39.75-.59,1.64-.59,2.7v7.26h-1.87v-13.81h1.79v3.79l-.29-.71c.44-1,1.14-1.78,2.1-2.35.96-.57,2.11-.85,3.45-.85Z"/>
        <path class="cls-1" d="m82.83,133.02v-1.55h8.55v1.55h-8.55Zm6.52,12.39c-1.3,0-2.3-.35-3-1.05-.7-.7-1.05-1.69-1.05-2.97v-12.97h1.87v12.86c0,.81.21,1.43.62,1.87.41.44,1,.66,1.78.66.82,0,1.51-.24,2.05-.71l.66,1.34c-.37.33-.81.58-1.33.74-.52.16-1.05.24-1.59.24Z"/>
        <path class="cls-1" d="m99.38,145.42c-1.14,0-2.22-.16-3.24-.49-1.02-.32-1.82-.73-2.39-1.22l.84-1.47c.56.42,1.28.79,2.16,1.09.88.31,1.8.46,2.76.46,1.32,0,2.26-.21,2.84-.62.58-.41.87-.96.87-1.64,0-.51-.16-.91-.49-1.2-.32-.29-.75-.51-1.28-.66-.53-.15-1.11-.28-1.76-.38-.65-.11-1.29-.23-1.93-.37-.64-.14-1.22-.35-1.75-.62-.53-.27-.95-.64-1.28-1.12-.32-.47-.49-1.1-.49-1.89s.21-1.43.63-2.03c.42-.6,1.04-1.07,1.85-1.41.82-.34,1.81-.51,2.99-.51.89,0,1.79.12,2.68.35.89.24,1.63.55,2.21.93l-.82,1.5c-.61-.42-1.27-.72-1.97-.91-.7-.18-1.4-.28-2.1-.28-1.25,0-2.16.22-2.75.64-.59.43-.88.98-.88,1.64,0,.53.16.94.49,1.24.32.3.75.53,1.29.7.53.17,1.12.3,1.76.41.64.1,1.28.23,1.92.38.64.15,1.23.35,1.76.6.53.25.96.61,1.29,1.08.32.46.49,1.07.49,1.83,0,.81-.22,1.5-.67,2.09-.45.59-1.1,1.04-1.95,1.37s-1.88.49-3.09.49Z"/>
      </g>
    </g>
  </g>
</svg>