<?xml version="1.0" encoding="UTF-8"?>
<svg id="Calque_2" data-name="Calque 2" xmlns="http://www.w3.org/2000/svg" viewBox="0 0 135 126.95">
  <defs>
    <style>
      .cls-1 {
        fill: #fff;
      }
    </style>
  </defs>
  <g id="Calque_1-2" data-name="Calque 1">
    <g>
      <g>
        <path class="cls-1" d="m9.94,60.08c0,2.76.86,5.1,2.58,7,1.72,1.9,3.86,3.62,6.44,5.15,2.58,1.53,5.36,3.06,8.34,4.59,2.98,1.53,5.77,3.3,8.34,5.32,2.58,2.02,4.72,4.46,6.44,7.34,1.72,2.88,2.58,6.4,2.58,10.58,0,6.12-1.92,10.97-5.77,14.56-3.85,3.58-9.35,5.37-16.52,5.37s-12.58-1.79-16.46-5.37C2.02,111.04.08,106.19.08,100.06h9.86c0,3.43.35,6.33,1.06,8.68.71,2.35,1.64,4.25,2.8,5.71,1.16,1.46,2.48,2.5,3.98,3.14,1.49.63,3.02.95,4.59.95s3.1-.32,4.59-.95c1.49-.63,2.82-1.68,3.98-3.14,1.16-1.46,2.09-3.36,2.8-5.71.71-2.35,1.06-5.24,1.06-8.68s-.86-6.27-2.58-8.51c-1.72-2.24-3.86-4.22-6.44-5.93-2.58-1.72-5.36-3.3-8.34-4.76-2.99-1.46-5.77-3.12-8.34-4.98-2.58-1.87-4.72-4.09-6.44-6.66C.94,66.64.08,63.37.08,59.41c0-5.75,1.94-10.4,5.82-13.94,3.88-3.54,9.37-5.32,16.46-5.32s12.67,1.81,16.52,5.43c3.84,3.62,5.77,8.46,5.77,14.5h-9.85c0-3.43-.36-6.33-1.06-8.68-.71-2.35-1.64-4.26-2.8-5.71-1.16-1.46-2.48-2.5-3.98-3.14-1.49-.63-3.02-.95-4.59-.95s-3.1.32-4.59.95c-1.49.63-2.82,1.68-3.98,3.14-1.16,1.46-2.09,3.36-2.8,5.71-.71,2.35-1.06,5.25-1.06,8.68Z"/>
        <path class="cls-1" d="m84.75,117.65v1.57h-31.36V40.93h30.8v1.57h-20.94v32.59h17.02v1.57h-17.02v40.99h21.5Z"/>
        <path class="cls-1" d="m134.92,119.21h-9.85v-18.7h-24.86v18.7h-9.86v-58.68c0-6.05,1.94-10.88,5.82-14.5,3.88-3.62,9.37-5.43,16.46-5.43s12.58,1.81,16.46,5.43c3.88,3.62,5.82,8.45,5.82,14.5v58.68Zm-9.85-58.68c0-3.43-.36-6.33-1.06-8.68-.71-2.35-1.64-4.26-2.8-5.71-1.16-1.46-2.48-2.5-3.97-3.14-1.49-.63-3.02-.95-4.59-.95s-3.1.32-4.59.95c-1.49.64-2.82,1.68-3.98,3.14-1.16,1.46-2.09,3.36-2.8,5.71-.71,2.35-1.06,5.25-1.06,8.68v38.41h24.86v-38.41Z"/>
      </g>
      <rect class="cls-1" y="123.82" width="135" height="3.14"/>
      <path class="cls-1" d="m67.5,3.53c25.39,0,47.3,15.33,57.15,37.32,1.88.81,3.57,1.85,5.06,3.11C120.42,18.33,96.04,0,67.5,0S15.09,17.96,5.59,43.17c1.49-1.19,3.18-2.16,5.05-2.93C20.61,18.58,42.35,3.53,67.5,3.53Z"/>
    </g>
  </g>
</svg>