<?xml version="1.0" encoding="UTF-8"?>
<svg id="Calque_2" data-name="Calque 2" xmlns="http://www.w3.org/2000/svg" viewBox="0 0 124.64 150.52">
  <defs>
    <style>
      .cls-1 {
        fill: #08113b;
      }
    </style>
  </defs>
  <g id="Calque_1-2" data-name="Calque 1">
    <g>
      <g>
        <g>
          <path class="cls-1" d="m10.28,54.94c0,2.53.78,4.66,2.35,6.4,1.57,1.74,3.53,3.31,5.89,4.71,2.35,1.4,4.9,2.8,7.63,4.2,2.73,1.4,5.27,3.02,7.63,4.86,2.36,1.84,4.32,4.08,5.89,6.71,1.57,2.63,2.35,5.85,2.35,9.68,0,5.6-1.76,10.04-5.27,13.31-3.52,3.28-8.55,4.91-15.1,4.91s-11.5-1.64-15.05-4.91c-3.55-3.28-5.32-7.71-5.32-13.31h9.01c0,3.14.32,5.79.97,7.94.65,2.15,1.5,3.89,2.56,5.22,1.06,1.33,2.27,2.29,3.64,2.87,1.36.58,2.77.87,4.2.87s2.83-.29,4.2-.87c1.36-.58,2.58-1.54,3.64-2.87,1.06-1.33,1.91-3.07,2.56-5.22.65-2.15.97-4.8.97-7.94s-.79-5.74-2.36-7.78c-1.57-2.05-3.53-3.86-5.89-5.43-2.36-1.57-4.9-3.02-7.63-4.35-2.73-1.33-5.27-2.85-7.63-4.56-2.36-1.71-4.32-3.74-5.89-6.09-1.57-2.35-2.36-5.34-2.36-8.96,0-5.26,1.77-9.51,5.32-12.75,3.55-3.24,8.57-4.86,15.05-4.86s11.59,1.66,15.1,4.97c3.52,3.31,5.27,7.73,5.27,13.26h-9.01c0-3.14-.32-5.79-.97-7.94-.65-2.15-1.5-3.89-2.56-5.22-1.06-1.33-2.27-2.29-3.64-2.87-1.37-.58-2.77-.87-4.2-.87s-2.83.29-4.2.87c-1.37.58-2.58,1.54-3.64,2.87-1.06,1.33-1.91,3.07-2.56,5.22-.65,2.15-.97,4.8-.97,7.94Z"/>
          <path class="cls-1" d="m78.69,107.58v1.43h-28.67V37.43h28.16v1.43h-19.15v29.8h15.57v1.43h-15.57v37.48h19.66Z"/>
          <path class="cls-1" d="m124.57,109.01h-9.01v-17.1h-22.73v17.1h-9.01v-53.66c0-5.53,1.77-9.95,5.32-13.26,3.55-3.31,8.57-4.97,15.05-4.97s11.5,1.66,15.05,4.97c3.55,3.31,5.32,7.73,5.32,13.26v53.66Zm-9.01-53.66c0-3.14-.33-5.79-.97-7.94-.65-2.15-1.5-3.89-2.56-5.22-1.06-1.33-2.27-2.29-3.63-2.87-1.37-.58-2.77-.87-4.2-.87s-2.83.29-4.2.87c-1.37.58-2.58,1.54-3.64,2.87-1.06,1.33-1.91,3.07-2.56,5.22-.65,2.15-.97,4.8-.97,7.94v35.13h22.73v-35.13Z"/>
        </g>
        <rect class="cls-1" x="1.2" y="113.22" width="123.45" height="2.87"/>
        <path class="cls-1" d="m62.92,3.23c23.21,0,43.25,14.02,52.25,34.12,1.72.74,3.27,1.69,4.63,2.84C111.31,16.77,89.02,0,62.92,0S14.99,16.42,6.3,39.48c1.37-1.09,2.91-1.98,4.62-2.68C20.05,16.99,39.92,3.23,62.92,3.23Z"/>
      </g>
      <g>
        <path class="cls-1" d="m0,145.28l8.42-18.42h1.92l8.42,18.42h-2.05l-7.73-17.28h.79l-7.73,17.28H0Zm3.31-4.92l.58-1.58h10.71l.58,1.58H3.31Z"/>
        <path class="cls-1" d="m27.02,145.41c-1.37,0-2.59-.3-3.67-.91-1.08-.61-1.92-1.44-2.54-2.5-.61-1.06-.92-2.28-.92-3.64s.31-2.6.92-3.66c.61-1.05,1.46-1.88,2.54-2.47s2.3-.89,3.67-.89c1.17,0,2.24.23,3.18.68.95.46,1.69,1.14,2.24,2.05l-1.39.95c-.47-.7-1.06-1.22-1.76-1.55-.7-.33-1.46-.5-2.29-.5-.98,0-1.87.22-2.66.67-.79.45-1.41,1.07-1.87,1.88-.46.81-.68,1.75-.68,2.84s.23,2.03.68,2.84c.46.81,1.08,1.43,1.87,1.88.79.45,1.67.67,2.66.67.82,0,1.59-.17,2.29-.5.7-.33,1.29-.84,1.76-1.53l1.39.95c-.54.89-1.29,1.57-2.24,2.04-.95.46-2.01.7-3.18.7Z"/>
        <path class="cls-1" d="m39.99,145.41c-1.04,0-1.93-.17-2.7-.51-.76-.34-1.35-.82-1.75-1.42-.4-.6-.6-1.3-.6-2.09,0-.72.17-1.37.51-1.96.34-.59.9-1.06,1.68-1.42.78-.36,1.83-.54,3.14-.54h4.76v1.39h-4.71c-1.33,0-2.26.24-2.78.71-.52.47-.78,1.06-.78,1.76,0,.79.31,1.42.92,1.89.61.47,1.47.71,2.58.71s1.96-.24,2.72-.72c.76-.48,1.32-1.18,1.67-2.09l.42,1.29c-.35.91-.96,1.64-1.83,2.18-.87.54-1.96.82-3.27.82Zm4.76-.13v-3.05l-.08-.5v-5.1c0-1.17-.33-2.08-.99-2.71-.66-.63-1.64-.95-2.93-.95-.89,0-1.75.15-2.55.45-.81.3-1.49.69-2.05,1.18l-.84-1.39c.7-.6,1.54-1.06,2.53-1.38.98-.32,2.02-.49,3.1-.49,1.79,0,3.17.44,4.14,1.33s1.46,2.23,1.46,4.04v8.58h-1.79Z"/>
        <path class="cls-1" d="m57.11,145.41c-1.32,0-2.5-.3-3.54-.89-1.04-.6-1.86-1.42-2.46-2.49-.6-1.06-.89-2.28-.89-3.67s.3-2.63.89-3.68,1.42-1.87,2.46-2.46c1.04-.59,2.22-.88,3.54-.88,1.21,0,2.29.27,3.25.82.96.54,1.72,1.34,2.29,2.38s.85,2.32.85,3.83-.28,2.76-.84,3.81c-.56,1.05-1.32,1.85-2.28,2.41-.96.55-2.05.83-3.28.83Zm.13-1.66c.98,0,1.86-.22,2.64-.67s1.39-1.08,1.84-1.89.67-1.76.67-2.83-.22-2.03-.67-2.84c-.45-.81-1.06-1.43-1.84-1.88s-1.66-.67-2.64-.67-1.83.22-2.6.67c-.77.45-1.39,1.07-1.84,1.88-.46.81-.68,1.75-.68,2.84s.23,2.01.68,2.83,1.07,1.45,1.84,1.89c.77.45,1.64.67,2.6.67Zm5.21,1.53v-4.16l.18-2.79-.26-2.79v-9.79h1.87v19.52h-1.79Z"/>
        <path class="cls-1" d="m75.32,145.41c-1.44,0-2.7-.3-3.79-.91-1.09-.61-1.94-1.44-2.55-2.5-.61-1.06-.92-2.28-.92-3.64s.29-2.58.88-3.63c.59-1.05,1.39-1.88,2.42-2.49s2.18-.91,3.46-.91,2.45.29,3.46.88c1.01.59,1.8,1.41,2.38,2.47.58,1.06.87,2.28.87,3.67,0,.09,0,.18-.01.28,0,.1-.01.2-.01.3h-12.02v-1.39h11.02l-.74.55c0-1-.21-1.89-.64-2.67-.43-.78-1.01-1.39-1.75-1.83-.74-.44-1.59-.66-2.55-.66s-1.8.22-2.55.66c-.75.44-1.34,1.05-1.76,1.84s-.63,1.69-.63,2.71v.29c0,1.05.23,1.98.7,2.78.46.8,1.11,1.42,1.95,1.87.83.45,1.78.67,2.85.67.84,0,1.63-.15,2.35-.45.73-.3,1.35-.75,1.88-1.37l1.05,1.21c-.61.74-1.38,1.3-2.3,1.68-.92.39-1.93.58-3.04.58Z"/>
        <path class="cls-1" d="m102.6,131.34c1.12,0,2.1.21,2.93.64.83.43,1.48,1.08,1.95,1.96.46.88.7,1.98.7,3.31v8.02h-1.87v-7.84c0-1.46-.35-2.56-1.04-3.3-.69-.75-1.67-1.12-2.93-1.12-.95,0-1.77.2-2.46.59-.69.4-1.23.96-1.6,1.71-.38.75-.57,1.64-.57,2.7v7.26h-1.87v-7.84c0-1.46-.35-2.56-1.05-3.3-.7-.75-1.68-1.12-2.95-1.12-.93,0-1.75.2-2.45.59-.7.4-1.24.96-1.62,1.71-.38.75-.57,1.64-.57,2.7v7.26h-1.87v-13.81h1.79v3.74l-.29-.66c.42-1,1.1-1.78,2.04-2.35.94-.57,2.05-.85,3.33-.85,1.35,0,2.5.34,3.45,1.01.95.68,1.56,1.69,1.84,3.04l-.74-.29c.4-1.12,1.12-2.03,2.14-2.72,1.03-.69,2.26-1.04,3.7-1.04Z"/>
        <path class="cls-1" d="m113.09,150.52c-.65,0-1.27-.11-1.85-.32-.59-.21-1.09-.53-1.51-.95l.87-1.39c.35.33.73.59,1.14.78.41.18.87.28,1.38.28.61,0,1.14-.17,1.59-.51.45-.34.87-.94,1.28-1.8l.89-2.03.21-.29,5.68-12.81h1.84l-6.92,15.47c-.39.89-.81,1.6-1.28,2.13-.46.53-.97.9-1.51,1.12-.54.22-1.15.33-1.82.33Zm3.68-4.84l-6.37-14.21h1.95l5.63,12.68-1.21,1.53Z"/>
      </g>
    </g>
  </g>
</svg>