<?xml version="1.0" encoding="UTF-8"?>
<svg id="Calque_2" data-name="Calque 2" xmlns="http://www.w3.org/2000/svg" viewBox="0 0 356.06 418.84">
  <defs>
    <style>
      .cls-1, .cls-2 {
        fill: #fff;
      }

      .cls-2 {
        font-family: Poppins-Italic, Poppins;
        font-size: 25.83px;
        font-style: italic;
      }
    </style>
  </defs>
  <g id="Calque_1-2" data-name="Calque 1">
    <g>
      <g>
        <path class="cls-1" d="m26.21,158.47c0,7.29,2.26,13.44,6.79,18.46,4.53,5.02,10.19,9.55,16.99,13.59,6.79,4.04,14.13,8.08,22,12.11,7.87,4.04,15.21,8.71,22.01,14.03,6.79,5.32,12.45,11.77,16.98,19.35,4.53,7.58,6.79,16.89,6.79,27.91,0,16.15-5.07,28.95-15.21,38.4-10.14,9.45-24.66,14.18-43.57,14.18s-33.18-4.73-43.42-14.18C5.34,292.86.22,280.07.22,263.92h25.99c0,9.06.93,16.69,2.81,22.89,1.87,6.2,4.33,11.22,7.38,15.06,3.05,3.84,6.55,6.6,10.49,8.27,3.94,1.67,7.98,2.51,12.11,2.51s8.17-.84,12.11-2.51c3.94-1.67,7.43-4.43,10.49-8.27,3.05-3.84,5.51-8.86,7.38-15.06,1.87-6.2,2.81-13.83,2.81-22.89s-2.27-16.54-6.79-22.45c-4.53-5.9-10.19-11.12-16.98-15.65-6.8-4.53-14.13-8.71-22.01-12.55-7.88-3.84-15.21-8.22-22-13.14-6.79-4.92-12.46-10.78-16.98-17.58-4.53-6.79-6.79-15.4-6.79-25.84,0-15.16,5.12-27.42,15.36-36.77,10.24-9.35,24.71-14.03,43.42-14.03s33.42,4.78,43.57,14.33c10.14,9.55,15.21,22.3,15.21,38.25h-25.99c0-9.05-.94-16.69-2.81-22.89-1.87-6.2-4.33-11.22-7.38-15.07-3.05-3.84-6.55-6.59-10.49-8.27-3.94-1.67-7.98-2.51-12.11-2.51s-8.17.84-12.11,2.51c-3.94,1.67-7.44,4.43-10.49,8.27-3.05,3.84-5.51,8.86-7.38,15.07-1.87,6.2-2.81,13.84-2.81,22.89Z"/>
        <path class="cls-1" d="m223.52,310.29v4.14h-82.7V107.96h81.23v4.14h-55.23v85.95h44.9v4.14h-44.9v108.11h56.71Z"/>
        <path class="cls-1" d="m355.84,314.43h-25.99v-49.33h-65.57v49.33h-25.99v-154.77c0-15.95,5.12-28.7,15.36-38.25,10.24-9.55,24.71-14.33,43.42-14.33s33.18,4.78,43.42,14.33c10.24,9.55,15.36,22.3,15.36,38.25v154.77Zm-25.99-154.77c0-9.05-.94-16.69-2.81-22.89-1.87-6.2-4.33-11.22-7.39-15.06-3.05-3.84-6.55-6.59-10.48-8.27-3.94-1.67-7.98-2.51-12.11-2.51s-8.17.84-12.11,2.51c-3.94,1.68-7.44,4.43-10.49,8.27-3.05,3.84-5.51,8.86-7.38,15.06-1.87,6.2-2.81,13.84-2.81,22.89v101.31h65.57v-101.31Z"/>
      </g>
      <rect class="cls-1" y="326.56" width="356.06" height="8.28"/>
      <path class="cls-1" d="m178.03,9.32c66.96,0,124.74,40.44,150.72,98.43,4.96,2.15,9.42,4.88,13.36,8.19C317.6,48.36,253.3,0,178.03,0S39.79,47.37,14.73,113.87c3.94-3.13,8.39-5.7,13.32-7.72C54.37,49.02,111.69,9.32,178.03,9.32Z"/>
    </g>
    <text class="cls-2" transform="translate(30.64 373.07)"><tspan x="0" y="0">Pour relever ensemble,</tspan><tspan x="21.13" y="30.99">de nouveaux défis !</tspan></text>
  </g>
</svg>