<?xml version="1.0" encoding="UTF-8"?>
<svg id="Calque_2" data-name="Calque 2" xmlns="http://www.w3.org/2000/svg" viewBox="0 0 123.45 116.09">
  <g id="Calque_1-2" data-name="Calque 1">
    <g>
      <g>
        <path d="m9.09,54.94c0,2.53.78,4.66,2.35,6.4,1.57,1.74,3.53,3.31,5.89,4.71,2.35,1.4,4.9,2.8,7.63,4.2,2.73,1.4,5.27,3.02,7.63,4.86,2.36,1.84,4.32,4.08,5.89,6.71,1.57,2.63,2.35,5.85,2.35,9.68,0,5.6-1.76,10.04-5.27,13.31-3.52,3.28-8.55,4.91-15.1,4.91s-11.5-1.64-15.05-4.91C1.85,101.54.08,97.1.08,91.5h9.01c0,3.14.32,5.79.97,7.94.65,2.15,1.5,3.89,2.56,5.22,1.06,1.33,2.27,2.29,3.64,2.87,1.36.58,2.77.87,4.2.87s2.83-.29,4.2-.87c1.36-.58,2.58-1.54,3.64-2.87,1.06-1.33,1.91-3.07,2.56-5.22.65-2.15.97-4.8.97-7.94s-.79-5.74-2.36-7.78c-1.57-2.05-3.53-3.86-5.89-5.43-2.36-1.57-4.9-3.02-7.63-4.35-2.73-1.33-5.27-2.85-7.63-4.56-2.36-1.71-4.32-3.74-5.89-6.09C.86,60.93.08,57.95.08,54.33c0-5.26,1.77-9.51,5.32-12.75,3.55-3.24,8.57-4.86,15.05-4.86s11.59,1.66,15.1,4.97c3.52,3.31,5.27,7.73,5.27,13.26h-9.01c0-3.14-.32-5.79-.97-7.94-.65-2.15-1.5-3.89-2.56-5.22-1.06-1.33-2.27-2.29-3.64-2.87-1.37-.58-2.77-.87-4.2-.87s-2.83.29-4.2.87c-1.37.58-2.58,1.54-3.64,2.87-1.06,1.33-1.91,3.07-2.56,5.22-.65,2.15-.97,4.8-.97,7.94Z"/>
        <path d="m77.49,107.58v1.43h-28.67V37.43h28.16v1.43h-19.15v29.8h15.57v1.43h-15.57v37.48h19.66Z"/>
        <path d="m123.37,109.01h-9.01v-17.1h-22.73v17.1h-9.01v-53.66c0-5.53,1.77-9.95,5.32-13.26,3.55-3.31,8.57-4.97,15.05-4.97s11.5,1.66,15.05,4.97c3.55,3.31,5.32,7.73,5.32,13.26v53.66Zm-9.01-53.66c0-3.14-.33-5.79-.97-7.94-.65-2.15-1.5-3.89-2.56-5.22-1.06-1.33-2.27-2.29-3.63-2.87-1.37-.58-2.77-.87-4.2-.87s-2.83.29-4.2.87c-1.37.58-2.58,1.54-3.64,2.87-1.06,1.33-1.91,3.07-2.56,5.22-.65,2.15-.97,4.8-.97,7.94v35.13h22.73v-35.13Z"/>
      </g>
      <rect y="113.22" width="123.45" height="2.87"/>
      <path d="m61.72,3.23c23.21,0,43.25,14.02,52.25,34.12,1.72.74,3.27,1.69,4.63,2.84C110.11,16.77,87.82,0,61.72,0S13.79,16.42,5.11,39.48c1.37-1.09,2.91-1.98,4.62-2.68C18.85,16.99,38.72,3.23,61.72,3.23Z"/>
    </g>
  </g>
</svg>