<?xml version="1.0" encoding="UTF-8"?>
<svg id="Calque_2" data-name="Calque 2" xmlns="http://www.w3.org/2000/svg" viewBox="0 0 356.06 404.3">
  <defs>
    <style>
      .cls-1 {
        fill: #fff;
      }
    </style>
  </defs>
  <g id="Calque_1-2" data-name="Calque 1">
    <g>
      <g>
        <path class="cls-1" d="m26.21,158.47c0,7.29,2.26,13.44,6.79,18.46,4.53,5.02,10.19,9.55,16.99,13.59,6.79,4.04,14.13,8.08,22,12.11,7.87,4.04,15.21,8.71,22.01,14.03,6.79,5.32,12.45,11.77,16.98,19.35,4.53,7.58,6.79,16.89,6.79,27.91,0,16.15-5.07,28.95-15.21,38.4-10.14,9.45-24.66,14.18-43.57,14.18s-33.18-4.73-43.42-14.18C5.34,292.86.22,280.07.22,263.92h25.99c0,9.06.93,16.69,2.81,22.89,1.87,6.2,4.33,11.22,7.38,15.06,3.05,3.84,6.55,6.6,10.49,8.27,3.94,1.67,7.98,2.51,12.11,2.51s8.17-.84,12.11-2.51c3.94-1.67,7.43-4.43,10.49-8.27,3.05-3.84,5.51-8.86,7.38-15.06,1.87-6.2,2.81-13.83,2.81-22.89s-2.27-16.54-6.79-22.45c-4.53-5.9-10.19-11.12-16.98-15.65-6.8-4.53-14.13-8.71-22.01-12.55-7.88-3.84-15.21-8.22-22-13.14-6.79-4.92-12.46-10.78-16.98-17.58-4.53-6.79-6.79-15.4-6.79-25.84,0-15.16,5.12-27.42,15.36-36.77,10.24-9.35,24.71-14.03,43.42-14.03s33.42,4.78,43.57,14.33c10.14,9.55,15.21,22.3,15.21,38.25h-25.99c0-9.05-.94-16.69-2.81-22.89-1.87-6.2-4.33-11.22-7.38-15.07-3.05-3.84-6.55-6.59-10.49-8.27-3.94-1.67-7.98-2.51-12.11-2.51s-8.17.84-12.11,2.51c-3.94,1.67-7.44,4.43-10.49,8.27-3.05,3.84-5.51,8.86-7.38,15.07-1.87,6.2-2.81,13.84-2.81,22.89Z"/>
        <path class="cls-1" d="m223.52,310.29v4.14h-82.7V107.96h81.23v4.14h-55.23v85.95h44.9v4.14h-44.9v108.11h56.71Z"/>
        <path class="cls-1" d="m355.84,314.43h-25.99v-49.33h-65.57v49.33h-25.99v-154.77c0-15.95,5.12-28.7,15.36-38.25,10.24-9.55,24.71-14.33,43.42-14.33s33.18,4.78,43.42,14.33c10.24,9.55,15.36,22.3,15.36,38.25v154.77Zm-25.99-154.77c0-9.05-.94-16.69-2.81-22.89-1.87-6.2-4.33-11.22-7.39-15.06-3.05-3.84-6.55-6.59-10.48-8.27-3.94-1.67-7.98-2.51-12.11-2.51s-8.17.84-12.11,2.51c-3.94,1.68-7.44,4.43-10.49,8.27-3.05,3.84-5.51,8.86-7.38,15.06-1.87,6.2-2.81,13.84-2.81,22.89v101.31h65.57v-101.31Z"/>
      </g>
      <rect class="cls-1" y="326.56" width="356.06" height="8.28"/>
      <path class="cls-1" d="m178.03,9.32c66.96,0,124.74,40.44,150.72,98.43,4.96,2.15,9.42,4.88,13.36,8.19C317.6,48.36,253.3,0,178.03,0S39.79,47.37,14.73,113.87c3.94-3.13,8.39-5.7,13.32-7.72C54.37,49.02,111.69,9.32,178.03,9.32Z"/>
    </g>
    <g>
      <path class="cls-1" d="m43.4,364.07c-1.21.99-2.85,1.49-4.93,1.49h-3.46l-1.34,7.52h-2.35l3.2-18h5.81c1.79,0,3.13.38,4.03,1.15.9.77,1.34,1.79,1.34,3.06,0,.22-.03.58-.1,1.06-.26,1.5-.99,2.74-2.2,3.73Zm-1.58-1.27c.72-.59,1.18-1.42,1.37-2.47.05-.31.08-.59.08-.85,0-1.7-1.09-2.56-3.28-2.56h-3.46l-1.19,6.77h3.46c1.29,0,2.3-.3,3.02-.89Z"/>
      <path class="cls-1" d="m49.35,372.57c-.9-.49-1.61-1.18-2.11-2.07s-.75-1.92-.75-3.09c0-1.6.37-3.07,1.11-4.4.74-1.33,1.76-2.39,3.06-3.16s2.75-1.16,4.35-1.16c1.19,0,2.24.25,3.16.74.92.49,1.64,1.18,2.14,2.07.51.89.76,1.92.76,3.11,0,1.6-.38,3.06-1.14,4.39-.76,1.33-1.79,2.38-3.1,3.15s-2.76,1.16-4.36,1.16c-1.19,0-2.23-.25-3.14-.74Zm6.44-2.17c.9-.61,1.6-1.42,2.1-2.43.51-1.01.76-2.09.76-3.24,0-1.31-.38-2.31-1.14-3.01-.76-.7-1.7-1.05-2.84-1.05s-2.12.31-3,.92c-.88.61-1.56,1.42-2.04,2.44-.48,1.02-.72,2.11-.72,3.28,0,1.27.36,2.26,1.08,2.96.72.7,1.64,1.05,2.76,1.05s2.13-.31,3.02-.92Z"/>
      <path class="cls-1" d="m77.85,358.92l-2.51,14.15h-2.35l.36-2.07c-.57.72-1.29,1.28-2.17,1.68-.88.4-1.79.59-2.74.59-1.48,0-2.67-.4-3.55-1.2-.89-.8-1.33-1.95-1.33-3.45,0-.38.04-.85.13-1.42l1.47-8.29h2.32l-1.4,7.98c-.07.36-.1.74-.1,1.14,0,1.05.29,1.85.87,2.39.58.54,1.38.81,2.42.81,1.24,0,2.29-.39,3.16-1.16.87-.77,1.42-1.9,1.67-3.38v.08l1.39-7.85h2.35Z"/>
      <path class="cls-1" d="m85.86,359.43c.86-.52,1.84-.77,2.94-.77l-.44,2.43h-.62c-1.22,0-2.24.33-3.06.98-.82.65-1.37,1.76-1.64,3.31l-1.37,7.7h-2.35l2.51-14.15h2.35l-.46,2.69c.57-.93,1.28-1.65,2.14-2.17Z"/>
      <path class="cls-1" d="m103.19,359.43c.86-.52,1.84-.77,2.94-.77l-.44,2.43h-.62c-1.22,0-2.24.33-3.06.98-.82.65-1.37,1.76-1.64,3.31l-1.37,7.7h-2.35l2.51-14.15h2.35l-.46,2.69c.57-.93,1.28-1.65,2.14-2.17Z"/>
      <path class="cls-1" d="m118.03,359.37c.87.46,1.53,1.09,1.99,1.91.46.82.68,1.75.68,2.8,0,.36-.04.8-.13,1.32-.07.45-.18.91-.34,1.4h-11.31c-.03.34-.05.59-.05.75,0,1.19.36,2.11,1.07,2.78.71.66,1.65.99,2.8.99,1.02,0,1.91-.24,2.67-.71.77-.47,1.35-1.11,1.74-1.9h2.53c-.62,1.36-1.57,2.47-2.85,3.32-1.28.85-2.77,1.28-4.46,1.28-1.77,0-3.2-.51-4.27-1.54-1.08-1.02-1.61-2.42-1.61-4.2,0-.5.05-1.03.15-1.6.26-1.46.78-2.75,1.58-3.85.79-1.1,1.77-1.95,2.93-2.54,1.16-.59,2.42-.89,3.78-.89,1.19,0,2.22.23,3.09.68Zm.25,4.77c0-1.1-.35-1.95-1.05-2.56-.7-.6-1.61-.9-2.73-.9-1.21,0-2.3.39-3.28,1.18-.98.78-1.64,1.86-1.99,3.24h8.96c.05-.34.08-.66.08-.96Z"/>
      <path class="cls-1" d="m128.04,353.96l-3.38,19.11h-2.35l3.38-19.11h2.35Z"/>
      <path class="cls-1" d="m140.4,359.37c.87.46,1.53,1.09,1.99,1.91.46.82.68,1.75.68,2.8,0,.36-.04.8-.13,1.32-.07.45-.18.91-.34,1.4h-11.31c-.03.34-.05.59-.05.75,0,1.19.36,2.11,1.07,2.78.71.66,1.65.99,2.8.99,1.02,0,1.91-.24,2.67-.71.77-.47,1.35-1.11,1.74-1.9h2.53c-.62,1.36-1.57,2.47-2.85,3.32-1.28.85-2.77,1.28-4.46,1.28-1.77,0-3.2-.51-4.27-1.54-1.08-1.02-1.61-2.42-1.61-4.2,0-.5.05-1.03.15-1.6.26-1.46.78-2.75,1.58-3.85.79-1.1,1.77-1.95,2.93-2.54,1.16-.59,2.42-.89,3.78-.89,1.19,0,2.22.23,3.09.68Zm.25,4.77c0-1.1-.35-1.95-1.05-2.56-.7-.6-1.61-.9-2.73-.9-1.21,0-2.3.39-3.28,1.18-.98.78-1.64,1.86-1.99,3.24h8.96c.05-.34.08-.66.08-.96Z"/>
      <path class="cls-1" d="m150.33,370.85l6.51-11.93h2.53l-8.06,14.15h-2.76l-3.05-14.15h2.53l2.3,11.93Z"/>
      <path class="cls-1" d="m170.9,359.37c.87.46,1.53,1.09,1.99,1.91.46.82.68,1.75.68,2.8,0,.36-.04.8-.13,1.32-.07.45-.18.91-.34,1.4h-11.31c-.03.34-.05.59-.05.75,0,1.19.36,2.11,1.07,2.78.71.66,1.65.99,2.8.99,1.02,0,1.91-.24,2.67-.71.77-.47,1.35-1.11,1.74-1.9h2.53c-.62,1.36-1.57,2.47-2.85,3.32-1.28.85-2.77,1.28-4.46,1.28-1.77,0-3.2-.51-4.27-1.54-1.08-1.02-1.61-2.42-1.61-4.2,0-.5.05-1.03.15-1.6.26-1.46.78-2.75,1.58-3.85.79-1.1,1.77-1.95,2.93-2.54,1.16-.59,2.42-.89,3.78-.89,1.19,0,2.22.23,3.09.68Zm.25,4.77c0-1.1-.35-1.95-1.05-2.56-.7-.6-1.61-.9-2.73-.9-1.21,0-2.3.39-3.28,1.18-.98.78-1.64,1.86-1.99,3.24h8.96c.05-.34.08-.66.08-.96Z"/>
      <path class="cls-1" d="m181.71,359.43c.86-.52,1.84-.77,2.94-.77l-.44,2.43h-.62c-1.22,0-2.24.33-3.06.98-.82.65-1.37,1.76-1.64,3.31l-1.37,7.7h-2.35l2.51-14.15h2.35l-.46,2.69c.57-.93,1.28-1.65,2.14-2.17Z"/>
      <path class="cls-1" d="m204.25,359.37c.87.46,1.53,1.09,1.99,1.91.46.82.68,1.75.68,2.8,0,.36-.04.8-.13,1.32-.07.45-.18.91-.34,1.4h-11.31c-.03.34-.05.59-.05.75,0,1.19.36,2.11,1.07,2.78.71.66,1.65.99,2.8.99,1.02,0,1.91-.24,2.67-.71.77-.47,1.35-1.11,1.74-1.9h2.53c-.62,1.36-1.57,2.47-2.85,3.32-1.28.85-2.77,1.28-4.46,1.28-1.77,0-3.2-.51-4.27-1.54-1.08-1.02-1.61-2.42-1.61-4.2,0-.5.05-1.03.15-1.6.26-1.46.78-2.75,1.58-3.85.79-1.1,1.77-1.95,2.93-2.54,1.16-.59,2.42-.89,3.78-.89,1.19,0,2.22.23,3.09.68Zm.25,4.77c0-1.1-.35-1.95-1.05-2.56-.7-.6-1.61-.9-2.73-.9-1.21,0-2.3.39-3.28,1.18-.98.78-1.64,1.86-1.99,3.24h8.96c.05-.34.08-.66.08-.96Z"/>
      <path class="cls-1" d="m221.49,359.83c.88.78,1.32,1.92,1.32,3.42,0,.55-.04,1.04-.13,1.47l-1.47,8.34h-2.32l1.42-8.01c.07-.36.1-.74.1-1.14,0-1.05-.29-1.85-.87-2.4-.58-.55-1.38-.83-2.42-.83-1.24,0-2.29.39-3.16,1.16s-1.43,1.9-1.69,3.38v-.05l-1.4,7.88h-2.35l2.51-14.15h2.35l-.36,2.04c.58-.74,1.32-1.31,2.2-1.7.88-.4,1.8-.59,2.76-.59,1.46,0,2.63.39,3.51,1.18Z"/>
      <path class="cls-1" d="m226.39,372.24c-.95-.71-1.42-1.65-1.42-2.84,0-.22,0-.39.03-.49h2.3c-.07.74.15,1.34.66,1.81s1.24.7,2.21.7,1.74-.19,2.34-.56c.59-.37.89-.89.89-1.56,0-.57-.24-1.02-.72-1.34-.48-.33-1.22-.68-2.22-1.06-.88-.33-1.6-.64-2.17-.93-.57-.29-1.05-.7-1.45-1.23-.4-.52-.59-1.19-.59-2s.23-1.5.68-2.12c.46-.62,1.09-1.1,1.91-1.43.82-.34,1.75-.5,2.8-.5,1.45,0,2.63.36,3.56,1.08s1.4,1.67,1.4,2.84c0,.22,0,.4-.03.52h-2.25l.03-.31c0-.69-.26-1.24-.79-1.64-.53-.4-1.22-.61-2.08-.61s-1.54.19-2.08.57c-.54.38-.81.89-.81,1.52,0,.6.25,1.08.75,1.42s1.27.72,2.32,1.14c.88.34,1.58.66,2.12.94.53.28.99.68,1.37,1.18s.57,1.13.57,1.89c0,.83-.25,1.55-.74,2.17-.49.62-1.17,1.09-2.03,1.42-.86.33-1.83.49-2.92.49-1.48,0-2.7-.35-3.64-1.06Z"/>
      <path class="cls-1" d="m250.27,359.37c.87.46,1.53,1.09,1.99,1.91.46.82.68,1.75.68,2.8,0,.36-.04.8-.13,1.32-.07.45-.18.91-.34,1.4h-11.31c-.03.34-.05.59-.05.75,0,1.19.36,2.11,1.07,2.78.71.66,1.65.99,2.8.99,1.02,0,1.91-.24,2.67-.71.77-.47,1.35-1.11,1.74-1.9h2.53c-.62,1.36-1.57,2.47-2.85,3.32-1.28.85-2.77,1.28-4.46,1.28-1.77,0-3.2-.51-4.27-1.54-1.08-1.02-1.61-2.42-1.61-4.2,0-.5.05-1.03.15-1.6.26-1.46.78-2.75,1.58-3.85.79-1.1,1.77-1.95,2.93-2.54,1.16-.59,2.42-.89,3.78-.89,1.19,0,2.22.23,3.09.68Zm.25,4.77c0-1.1-.35-1.95-1.05-2.56-.7-.6-1.61-.9-2.73-.9-1.21,0-2.3.39-3.28,1.18-.98.78-1.64,1.86-1.99,3.24h8.96c.05-.34.08-.66.08-.96Z"/>
      <path class="cls-1" d="m277.6,359.83c.87.78,1.3,1.92,1.3,3.42,0,.55-.04,1.04-.13,1.47l-1.47,8.34h-2.32l1.42-8.01c.07-.36.1-.75.1-1.16,0-1.05-.28-1.85-.84-2.39s-1.35-.81-2.36-.81c-1.17,0-2.17.36-3.01,1.07-.84.71-1.41,1.74-1.72,3.09l-1.47,8.21h-2.32l1.42-8.01c.07-.4.1-.79.1-1.19,0-1.03-.28-1.82-.84-2.36-.56-.54-1.35-.81-2.36-.81-1.22,0-2.26.39-3.12,1.18-.86.78-1.42,1.92-1.68,3.4v-.05l-1.4,7.85h-2.35l2.51-14.15h2.35l-.36,2.04c.58-.74,1.31-1.31,2.17-1.7.86-.4,1.76-.59,2.71-.59,1.19,0,2.19.27,3.01.8.82.53,1.36,1.32,1.61,2.35.58-1,1.38-1.77,2.39-2.32,1.01-.55,2.07-.83,3.19-.83,1.45,0,2.6.39,3.47,1.18Z"/>
      <path class="cls-1" d="m288.02,359.49c1.02-.53,2.12-.8,3.31-.8,1.69,0,3.04.51,4.07,1.52,1.02,1.02,1.54,2.39,1.54,4.13,0,.5-.05,1.03-.16,1.6-.26,1.43-.78,2.7-1.56,3.82-.78,1.12-1.74,1.99-2.87,2.61-1.13.62-2.32.93-3.58.93s-2.25-.27-3.07-.8c-.83-.53-1.4-1.21-1.73-2.04l-.46,2.61h-2.35l3.38-19.11h2.35l-1.34,7.59c.64-.84,1.46-1.53,2.48-2.07Zm6.46,5.27c0-1.26-.37-2.24-1.11-2.96-.74-.71-1.7-1.07-2.87-1.07-.86,0-1.7.21-2.51.63-.81.42-1.5,1.03-2.08,1.83-.58.8-.96,1.73-1.15,2.78-.07.36-.1.76-.1,1.19,0,1.26.37,2.25,1.12,2.98.75.73,1.7,1.1,2.85,1.1.88,0,1.72-.21,2.52-.63.8-.42,1.49-1.03,2.07-1.83.58-.8.96-1.74,1.15-2.83.07-.36.1-.76.1-1.19Z"/>
      <path class="cls-1" d="m304.35,353.96l-3.38,19.11h-2.35l3.38-19.11h2.35Z"/>
      <path class="cls-1" d="m316.7,359.37c.87.46,1.53,1.09,1.99,1.91.46.82.68,1.75.68,2.8,0,.36-.04.8-.13,1.32-.07.45-.18.91-.34,1.4h-11.31c-.03.34-.05.59-.05.75,0,1.19.36,2.11,1.07,2.78.71.66,1.65.99,2.8.99,1.02,0,1.91-.24,2.67-.71.77-.47,1.35-1.11,1.74-1.9h2.53c-.62,1.36-1.57,2.47-2.85,3.32-1.28.85-2.77,1.28-4.46,1.28-1.77,0-3.2-.51-4.27-1.54-1.08-1.02-1.61-2.42-1.61-4.2,0-.5.05-1.03.15-1.6.26-1.46.78-2.75,1.58-3.85.79-1.1,1.77-1.95,2.93-2.54,1.16-.59,2.42-.89,3.78-.89,1.19,0,2.22.23,3.09.68Zm.25,4.77c0-1.1-.35-1.95-1.05-2.56-.7-.6-1.61-.9-2.73-.9-1.21,0-2.3.39-3.28,1.18-.98.78-1.64,1.86-1.99,3.24h8.96c.05-.34.08-.66.08-.96Z"/>
      <path class="cls-1" d="m323.97,369.82l-4.11,6.95h-1.58l3.1-6.95h2.58Z"/>
      <path class="cls-1" d="m54.36,393.13c.78-1.09,1.74-1.94,2.88-2.54,1.14-.6,2.34-.9,3.62-.9,1.08,0,2.06.25,2.92.76.86.51,1.47,1.18,1.83,2l1.32-7.49h2.38l-3.38,19.11h-2.38l.49-2.66c-.6.84-1.41,1.54-2.43,2.08-1.02.54-2.14.81-3.36.81-1.1,0-2.08-.24-2.92-.71-.84-.47-1.5-1.15-1.98-2.03-.47-.88-.71-1.89-.71-3.05,0-.52.05-1.04.15-1.58.26-1.45.78-2.72,1.56-3.81Zm10.55,2.67c0-1.26-.37-2.25-1.12-2.98-.75-.73-1.7-1.1-2.85-1.1-.88,0-1.72.21-2.52.62-.8.41-1.48,1.02-2.05,1.81-.57.79-.95,1.72-1.14,2.79-.07.36-.1.76-.1,1.19,0,1.27.37,2.28,1.11,3.01.74.73,1.69,1.1,2.84,1.1.88,0,1.72-.21,2.52-.63.8-.42,1.49-1.03,2.07-1.83.58-.8.96-1.73,1.15-2.8.07-.36.1-.75.1-1.16Z"/>
      <path class="cls-1" d="m81.64,390.36c.87.46,1.53,1.09,1.99,1.91.46.82.68,1.75.68,2.8,0,.36-.04.8-.13,1.32-.07.45-.18.91-.34,1.4h-11.31c-.03.34-.05.59-.05.75,0,1.19.36,2.11,1.07,2.78.71.66,1.65.99,2.8.99,1.02,0,1.91-.24,2.67-.71.77-.47,1.35-1.11,1.74-1.9h2.53c-.62,1.36-1.57,2.47-2.85,3.32-1.28.85-2.77,1.28-4.46,1.28-1.77,0-3.2-.51-4.27-1.54-1.08-1.02-1.61-2.42-1.61-4.2,0-.5.05-1.03.15-1.6.26-1.46.78-2.75,1.58-3.85.79-1.1,1.77-1.95,2.93-2.54,1.16-.59,2.42-.89,3.78-.89,1.19,0,2.22.23,3.09.68Zm.25,4.77c0-1.1-.35-1.95-1.05-2.56-.7-.6-1.61-.9-2.73-.9-1.21,0-2.3.39-3.28,1.18-.98.78-1.64,1.86-1.99,3.24h8.96c.05-.34.08-.66.08-.96Z"/>
      <path class="cls-1" d="m106.58,390.83c.88.78,1.32,1.92,1.32,3.42,0,.55-.04,1.04-.13,1.47l-1.47,8.34h-2.32l1.42-8.01c.07-.36.1-.74.1-1.14,0-1.05-.29-1.85-.87-2.4-.58-.55-1.38-.83-2.42-.83-1.24,0-2.29.39-3.16,1.16s-1.43,1.9-1.69,3.38v-.05l-1.4,7.88h-2.35l2.51-14.15h2.35l-.36,2.04c.58-.74,1.32-1.31,2.2-1.7.88-.4,1.8-.59,2.76-.59,1.46,0,2.63.39,3.51,1.18Z"/>
      <path class="cls-1" d="m113.23,403.56c-.9-.49-1.61-1.18-2.11-2.07s-.75-1.92-.75-3.09c0-1.6.37-3.07,1.11-4.4.74-1.33,1.76-2.39,3.06-3.16s2.75-1.16,4.35-1.16c1.19,0,2.24.25,3.16.74.92.49,1.64,1.18,2.14,2.07.51.89.76,1.92.76,3.11,0,1.6-.38,3.06-1.14,4.39-.76,1.33-1.79,2.38-3.1,3.15s-2.76,1.16-4.36,1.16c-1.19,0-2.23-.25-3.14-.74Zm6.44-2.17c.9-.61,1.6-1.42,2.1-2.43.51-1.01.76-2.09.76-3.24,0-1.31-.38-2.31-1.14-3.01-.76-.7-1.7-1.05-2.84-1.05s-2.12.31-3,.92c-.88.61-1.56,1.42-2.04,2.44-.48,1.02-.72,2.11-.72,3.28,0,1.27.36,2.26,1.08,2.96.72.7,1.64,1.05,2.76,1.05s2.13-.31,3.02-.92Z"/>
      <path class="cls-1" d="m141.73,389.91l-2.51,14.15h-2.35l.36-2.07c-.57.72-1.29,1.28-2.17,1.68-.88.4-1.79.59-2.74.59-1.48,0-2.67-.4-3.55-1.2-.89-.8-1.33-1.95-1.33-3.45,0-.38.04-.85.13-1.42l1.47-8.29h2.32l-1.4,7.98c-.07.36-.1.74-.1,1.14,0,1.05.29,1.85.87,2.39.58.54,1.38.81,2.42.81,1.24,0,2.29-.39,3.16-1.16.87-.77,1.42-1.9,1.67-3.38v.08l1.39-7.85h2.35Z"/>
      <path class="cls-1" d="m148.86,401.84l6.51-11.93h2.53l-8.06,14.15h-2.76l-3.05-14.15h2.53l2.3,11.93Z"/>
      <path class="cls-1" d="m169.43,390.36c.87.46,1.53,1.09,1.99,1.91.46.82.68,1.75.68,2.8,0,.36-.04.8-.13,1.32-.07.45-.18.91-.34,1.4h-11.31c-.03.34-.05.59-.05.75,0,1.19.36,2.11,1.07,2.78.71.66,1.65.99,2.8.99,1.02,0,1.91-.24,2.67-.71.77-.47,1.35-1.11,1.74-1.9h2.53c-.62,1.36-1.57,2.47-2.85,3.32-1.28.85-2.77,1.28-4.46,1.28-1.77,0-3.2-.51-4.27-1.54-1.08-1.02-1.61-2.42-1.61-4.2,0-.5.05-1.03.15-1.6.26-1.46.78-2.75,1.58-3.85.79-1.1,1.77-1.95,2.93-2.54,1.16-.59,2.42-.89,3.78-.89,1.19,0,2.22.23,3.09.68Zm.25,4.77c0-1.1-.35-1.95-1.05-2.56-.7-.6-1.61-.9-2.73-.9-1.21,0-2.3.39-3.28,1.18-.98.78-1.64,1.86-1.99,3.24h8.96c.05-.34.08-.66.08-.96Z"/>
      <path class="cls-1" d="m175.63,393.13c.78-1.09,1.74-1.94,2.87-2.54,1.13-.6,2.33-.9,3.6-.9s2.26.27,3.07.8c.81.53,1.37,1.21,1.68,2.01l.46-2.58h2.38l-2.51,14.15h-2.38l.49-2.63c-.62.83-1.44,1.51-2.45,2.05s-2.14.81-3.36.81c-1.1,0-2.08-.24-2.92-.71-.84-.47-1.5-1.15-1.96-2.03-.46-.88-.7-1.89-.7-3.05,0-.52.05-1.04.15-1.58.26-1.45.78-2.72,1.56-3.81Zm10.55,2.67c0-1.26-.37-2.25-1.12-2.98-.75-.73-1.7-1.1-2.85-1.1-.88,0-1.72.21-2.52.62-.8.41-1.48,1.02-2.05,1.81-.57.79-.95,1.72-1.14,2.79-.07.36-.1.76-.1,1.19,0,1.27.37,2.28,1.11,3.01.74.73,1.69,1.1,2.84,1.1.88,0,1.72-.21,2.52-.63.8-.42,1.49-1.03,2.07-1.83.58-.8.96-1.73,1.15-2.8.07-.36.1-.75.1-1.16Z"/>
      <path class="cls-1" d="m206.22,389.91l-2.51,14.15h-2.35l.36-2.07c-.57.72-1.29,1.28-2.17,1.68-.88.4-1.79.59-2.74.59-1.48,0-2.67-.4-3.55-1.2-.89-.8-1.33-1.95-1.33-3.45,0-.38.04-.85.13-1.42l1.47-8.29h2.32l-1.4,7.98c-.07.36-.1.74-.1,1.14,0,1.05.29,1.85.87,2.39.58.54,1.38.81,2.42.81,1.24,0,2.29-.39,3.16-1.16.87-.77,1.42-1.9,1.67-3.38v.08l1.39-7.85h2.35Z"/>
      <path class="cls-1" d="m214.44,396.91l3.31,7.15h-2.66l-2.43-5.27-4.16,5.27h-2.48l5.84-7.03-3.31-7.13h2.66l2.4,5.22,4.13-5.22h2.48l-5.79,7Z"/>
      <path class="cls-1" d="m229.69,393.13c.78-1.09,1.74-1.94,2.88-2.54,1.14-.6,2.34-.9,3.62-.9,1.08,0,2.06.25,2.92.76.86.51,1.47,1.18,1.83,2l1.32-7.49h2.38l-3.38,19.11h-2.38l.49-2.66c-.6.84-1.41,1.54-2.43,2.08-1.02.54-2.14.81-3.36.81-1.1,0-2.08-.24-2.92-.71-.84-.47-1.5-1.15-1.98-2.03-.47-.88-.71-1.89-.71-3.05,0-.52.05-1.04.15-1.58.26-1.45.78-2.72,1.56-3.81Zm10.55,2.67c0-1.26-.37-2.25-1.12-2.98-.75-.73-1.7-1.1-2.85-1.1-.88,0-1.72.21-2.52.62-.8.41-1.48,1.02-2.05,1.81-.57.79-.95,1.72-1.14,2.79-.07.36-.1.76-.1,1.19,0,1.27.37,2.28,1.11,3.01.74.73,1.69,1.1,2.84,1.1.88,0,1.72-.21,2.52-.63.8-.42,1.49-1.03,2.07-1.83.58-.8.96-1.73,1.15-2.8.07-.36.1-.75.1-1.16Z"/>
      <path class="cls-1" d="m256.96,390.36c.87.46,1.53,1.09,1.99,1.91.46.82.68,1.75.68,2.8,0,.36-.04.8-.13,1.32-.07.45-.18.91-.34,1.4h-11.31c-.03.34-.05.59-.05.75,0,1.19.36,2.11,1.07,2.78.71.66,1.65.99,2.8.99,1.02,0,1.91-.24,2.67-.71.77-.47,1.35-1.11,1.74-1.9h2.53c-.62,1.36-1.57,2.47-2.85,3.32-1.28.85-2.77,1.28-4.46,1.28-1.77,0-3.2-.51-4.27-1.54-1.08-1.02-1.61-2.42-1.61-4.2,0-.5.05-1.03.15-1.6.26-1.46.78-2.75,1.58-3.85.79-1.1,1.77-1.95,2.93-2.54,1.16-.59,2.42-.89,3.78-.89,1.19,0,2.22.23,3.09.68Zm.25,4.77c0-1.1-.35-1.95-1.05-2.56-.7-.6-1.61-.9-2.73-.9-1.21,0-2.3.39-3.28,1.18-.98.78-1.64,1.86-1.99,3.24h8.96c.05-.34.08-.66.08-.96Zm-.21-9.22l-6.04,2.94.31-1.76,6.1-3.23-.36,2.04Z"/>
      <path class="cls-1" d="m267.68,386.9c-.49.4-.81,1.07-.97,2l-.18,1.01h2.97l-.34,1.94h-2.97l-2.17,12.22h-2.35l2.14-12.22h-1.81l.34-1.94h1.81l.18-1.01c.29-1.58.91-2.74,1.86-3.47.95-.73,2.32-1.1,4.13-1.1l-.34,1.96c-1.05,0-1.82.2-2.31.61Z"/>
      <path class="cls-1" d="m274.59,389.91l-2.51,14.15h-2.35l2.51-14.15h2.35Zm-1.69-2.67c-.25-.25-.37-.56-.37-.94,0-.52.19-.96.57-1.33.38-.37.82-.56,1.32-.56.4,0,.71.12.96.36.24.24.36.56.36.96,0,.52-.19.96-.57,1.33-.38.37-.82.56-1.32.56-.38,0-.69-.12-.94-.37Z"/>
      <path class="cls-1" d="m277.43,403.24c-.95-.71-1.42-1.65-1.42-2.84,0-.22,0-.39.03-.49h2.3c-.07.74.15,1.34.66,1.81s1.24.7,2.21.7,1.74-.19,2.34-.56c.59-.37.89-.89.89-1.56,0-.57-.24-1.02-.72-1.34-.48-.33-1.22-.68-2.22-1.06-.88-.33-1.6-.64-2.17-.93-.57-.29-1.05-.7-1.45-1.23-.4-.52-.59-1.19-.59-2s.23-1.5.68-2.12c.46-.62,1.09-1.1,1.91-1.43.82-.34,1.75-.5,2.8-.5,1.45,0,2.63.36,3.56,1.08s1.4,1.67,1.4,2.84c0,.22,0,.4-.03.52h-2.25l.03-.31c0-.69-.26-1.24-.79-1.64-.53-.4-1.22-.61-2.08-.61s-1.54.19-2.08.57c-.54.38-.81.89-.81,1.52,0,.6.25,1.08.75,1.42s1.27.72,2.32,1.14c.88.34,1.58.66,2.12.94.53.28.99.68,1.37,1.18s.57,1.13.57,1.89c0,.83-.25,1.55-.74,2.17-.49.62-1.17,1.09-2.03,1.42-.86.33-1.83.49-2.92.49-1.48,0-2.7-.35-3.64-1.06Z"/>
      <path class="cls-1" d="m298.16,403.86c-.25-.24-.37-.56-.37-.96,0-.52.19-.96.57-1.33.38-.37.83-.56,1.34-.56.4,0,.71.12.96.36.24.24.36.56.36.96,0,.52-.19.96-.57,1.33-.38.37-.82.56-1.32.56-.4,0-.72-.12-.97-.36Zm5.33-17.8l-2.56,12.91h-1.96l2.01-12.91h2.51Z"/>
    </g>
  </g>
</svg>