<?xml version="1.0" encoding="UTF-8"?>
<svg id="Calque_2" data-name="Calque 2" xmlns="http://www.w3.org/2000/svg" viewBox="0 0 52.88 52.88">
  <defs>
    <style>
      .cls-1 {
        fill: #fff;
      }
    </style>
  </defs>
  <g id="Calque_1-2" data-name="Calque 1">
    <g>
      <circle cx="26.44" cy="26.44" r="26.44"/>
      <path class="cls-1" d="m40.97,23.15l-4.69-3.84v-3.62c0-.48-.39-.87-.87-.87h-4.61l-3.71-3.03c-.32-.26-.78-.26-1.1,0l-3.76,3.04h-4.76c-.48,0-.87.39-.87.87v3.67l-4.68,3.78c-.2.17-.32.41-.32.68v16.59c0,.48.39.87.87.87h27.95c.48,0,.87-.39.87-.87v-16.59c0-.26-.12-.51-.32-.67Zm-4.69-1.59l2.8,2.29-2.8,2.49v-4.78Zm-9.74-7.97l1.52,1.24h-3.05l1.54-1.24Zm-5.51,4.68h10.84c.48,0,.87.39.87.87s-.39.87-.87.87h-10.84c-.48,0-.87-.39-.87-.87s.39-.87.87-.87Zm10.84,4.61h-3.72c-.48,0-.87-.39-.87-.87s.39-.87.87-.87h3.72c.48,0,.87.39.87.87s-.39.87-.87.87Zm.87,2.03c0,.48-.39.87-.87.87h-3.72c-.48,0-.87-.39-.87-.87s.39-.87.87-.87h3.72c.48,0,.87.39.87.87Zm-11.7-3.77h3.72c.48,0,.87.39.87.87s-.39.87-.87.87h-3.72c-.48,0-.87-.39-.87-.87s.39-.87.87-.87Zm0,2.9h3.72c.48,0,.87.39.87.87s-.39.87-.87.87h-3.72c-.48,0-.87-.39-.87-.87s.39-.87.87-.87Zm0,2.9h10.84c.48,0,.87.39.87.87s-.39.87-.87.87h-10.84c-.48,0-.87-.39-.87-.87s.39-.87.87-.87Zm-4.42-5.34v4.74l-2.79-2.49,2.79-2.25Zm-3.27,4.16l6.66,5.94-6.66,6.62v-12.56Zm1.24,13.78l6.72-6.68,4.56,4.07c.17.15.37.22.58.22s.41-.07.58-.22l4.56-4.07,6.72,6.68H14.58Zm24.97-1.22l-6.66-6.62,6.66-5.94v12.56Z"/>
    </g>
  </g>
</svg>