<?xml version="1.0" encoding="UTF-8"?>
<svg id="Calque_2" data-name="Calque 2" xmlns="http://www.w3.org/2000/svg" viewBox="0 0 52.88 52.88">
  <defs>
    <style>
      .cls-1 {
        fill: #fff;
      }
    </style>
  </defs>
  <g id="Calque_1-2" data-name="Calque 1">
    <g>
      <circle cx="26.44" cy="26.44" r="26.44"/>
      <path class="cls-1" d="m33.15,11.17h-13.42c-1.82,0-3.29,1.48-3.29,3.29v23.97c0,1.82,1.48,3.29,3.29,3.29h13.42c1.82,0,3.29-1.48,3.29-3.29V14.46c0-1.82-1.48-3.29-3.29-3.29Zm-6.71,28.16c-1.29,0-2.33-1.05-2.33-2.33s1.05-2.33,2.33-2.33,2.33,1.05,2.33,2.33-1.05,2.33-2.33,2.33Zm8.21-7.06h-16.43V14.46c0-.83.67-1.5,1.5-1.5h13.42c.83,0,1.5.67,1.5,1.5v17.8Z"/>
    </g>
  </g>
</svg>