<?xml version="1.0" encoding="UTF-8"?>
<svg id="Calque_2" data-name="Calque 2" xmlns="http://www.w3.org/2000/svg" viewBox="0 0 52.88 52.88">
  <defs>
    <style>
      .cls-1 {
        fill: #6d071a;
      }

      .cls-2 {
        fill: #ffce00;
      }
    </style>
  </defs>
  <g id="Calque_1-2" data-name="Calque 1">
    <g>
      <circle class="cls-2" cx="26.44" cy="26.44" r="26.44"/>
      <g>
        <path class="cls-1" d="m40.99,24.85l-13.51-12.31c-.59-.54-1.49-.54-2.08,0l-13.51,12.31c-.47.43-.63,1.1-.4,1.7.23.6.8.99,1.44.99h2.16v12.34c0,.49.4.89.89.89h7.41c.49,0,.89-.4.89-.89v-7.49h4.35v7.49c0,.49.4.89.89.89h7.41c.49,0,.89-.4.89-.89v-12.34h2.16c.64,0,1.21-.39,1.44-.99.23-.6.07-1.27-.4-1.7Z"/>
        <path class="cls-1" d="m38.45,20.11v-5.33c0-.49-.4-.89-.89-.89h-5.95l6.83,6.21Z"/>
      </g>
    </g>
  </g>
</svg>