<?xml version="1.0" encoding="UTF-8"?>
<svg id="Calque_2" data-name="Calque 2" xmlns="http://www.w3.org/2000/svg" viewBox="0 0 105 123.69">
  <defs>
    <style>
      .cls-1 {
        fill: #fff;
      }
    </style>
  </defs>
  <g id="Calque_1-2" data-name="Calque 1">
    <g>
      <g>
        <g>
          <path class="cls-1" d="m7.73,46.73c0,2.15.67,3.96,2,5.44,1.34,1.48,3.01,2.82,5.01,4.01,2,1.19,4.17,2.38,6.49,3.57,2.32,1.19,4.49,2.57,6.49,4.14s3.67,3.47,5.01,5.71c1.34,2.24,2,4.98,2,8.23,0,4.76-1.5,8.54-4.49,11.32-2.99,2.79-7.27,4.18-12.85,4.18s-9.79-1.39-12.8-4.18C1.57,86.36.06,82.59.06,77.83h7.67c0,2.67.28,4.92.83,6.75.55,1.83,1.28,3.31,2.18,4.44.9,1.13,1.93,1.95,3.09,2.44,1.16.49,2.35.74,3.57.74s2.41-.25,3.57-.74c1.16-.49,2.19-1.31,3.09-2.44.9-1.13,1.62-2.61,2.18-4.44.55-1.83.83-4.08.83-6.75s-.67-4.88-2-6.62c-1.34-1.74-3.01-3.28-5.01-4.62-2-1.34-4.17-2.57-6.49-3.7-2.32-1.13-4.49-2.42-6.49-3.88-2-1.45-3.67-3.18-5.01-5.18C.73,51.83.06,49.29.06,46.21c0-4.47,1.51-8.09,4.53-10.84,3.02-2.76,7.29-4.14,12.8-4.14s9.86,1.41,12.85,4.22c2.99,2.82,4.49,6.58,4.49,11.28h-7.66c0-2.67-.28-4.92-.83-6.75-.55-1.83-1.28-3.31-2.18-4.44-.9-1.13-1.93-1.94-3.09-2.44-1.16-.49-2.35-.74-3.57-.74s-2.41.25-3.57.74c-1.16.49-2.19,1.31-3.09,2.44-.9,1.13-1.63,2.61-2.18,4.44-.55,1.83-.83,4.08-.83,6.75Z"/>
          <path class="cls-1" d="m65.91,91.5v1.22h-24.39V31.84h23.95v1.22h-16.29v25.35h13.24v1.22h-13.24v31.88h16.72Z"/>
          <path class="cls-1" d="m104.94,92.72h-7.66v-14.55h-19.34v14.55h-7.67v-45.64c0-4.7,1.51-8.46,4.53-11.28,3.02-2.82,7.29-4.22,12.8-4.22s9.78,1.41,12.8,4.22c3.02,2.82,4.53,6.58,4.53,11.28v45.64Zm-7.66-45.64c0-2.67-.28-4.92-.83-6.75-.55-1.83-1.28-3.31-2.18-4.44-.9-1.13-1.93-1.94-3.09-2.44-1.16-.49-2.35-.74-3.57-.74s-2.41.25-3.57.74c-1.16.49-2.19,1.31-3.09,2.44-.9,1.13-1.63,2.61-2.18,4.44-.55,1.83-.83,4.08-.83,6.75v29.88h19.34v-29.88Z"/>
        </g>
        <rect class="cls-1" y="96.3" width="105" height="2.44"/>
        <path class="cls-1" d="m52.5,2.75c19.74,0,36.79,11.93,44.45,29.03,1.46.63,2.78,1.44,3.94,2.42C93.66,14.26,74.7,0,52.5,0S11.73,13.97,4.34,33.58c1.16-.92,2.47-1.68,3.93-2.28C16.03,14.45,32.94,2.75,52.5,2.75Z"/>
      </g>
      <g>
        <path class="cls-1" d="m19.13,122.14h9.42v1.43h-11.08v-15.66h10.74v1.43h-9.08v12.8Zm-.18-7.23h8.28v1.41h-8.28v-1.41Z"/>
        <path class="cls-1" d="m34.88,123.58l-5.21-11.75h1.66l4.79,10.9h-.78l4.86-10.9h1.57l-5.24,11.75h-1.63Z"/>
        <path class="cls-1" d="m48.64,123.69c-1.22,0-2.3-.26-3.22-.77-.92-.51-1.65-1.22-2.17-2.13-.52-.9-.78-1.94-.78-3.1s.25-2.19.75-3.09c.5-.9,1.19-1.6,2.06-2.11s1.85-.77,2.94-.77,2.08.25,2.94.75c.86.5,1.53,1.2,2.03,2.1.49.9.74,1.94.74,3.12,0,.07,0,.15-.01.24,0,.08-.01.17-.01.26h-10.23v-1.19h9.38l-.63.47c0-.85-.18-1.61-.55-2.27-.37-.66-.86-1.18-1.49-1.56-.63-.37-1.35-.56-2.17-.56s-1.53.19-2.17.56c-.64.37-1.14.9-1.5,1.57s-.54,1.44-.54,2.3v.25c0,.9.2,1.68.59,2.36.39.68.95,1.21,1.66,1.59.71.38,1.52.57,2.43.57.72,0,1.38-.13,2-.38.62-.25,1.15-.64,1.6-1.16l.9,1.03c-.52.63-1.17,1.1-1.96,1.43-.78.33-1.64.49-2.58.49Z"/>
        <path class="cls-1" d="m63.16,111.72c.95,0,1.79.18,2.52.55.72.37,1.29.92,1.7,1.67.41.75.62,1.69.62,2.82v6.82h-1.59v-6.67c0-1.24-.31-2.17-.93-2.81-.62-.63-1.49-.95-2.61-.95-.84,0-1.56.17-2.18.5-.62.34-1.1.82-1.43,1.45-.34.63-.5,1.4-.5,2.29v6.18h-1.59v-11.75h1.52v3.22l-.25-.6c.37-.85.97-1.52,1.79-2,.82-.48,1.8-.73,2.93-.73Z"/>
        <path class="cls-1" d="m70.46,113.15v-1.32h7.27v1.32h-7.27Zm5.55,10.54c-1.1,0-1.95-.3-2.55-.9-.6-.6-.9-1.44-.9-2.53v-11.03h1.59v10.94c0,.69.17,1.22.53,1.59.35.37.85.56,1.51.56.7,0,1.28-.2,1.75-.6l.56,1.14c-.31.28-.69.49-1.13.63-.44.13-.89.2-1.35.2Z"/>
        <path class="cls-1" d="m84.53,123.69c-.97,0-1.89-.14-2.75-.41-.87-.28-1.54-.62-2.04-1.04l.72-1.25c.48.36,1.09.67,1.83.93.75.26,1.53.39,2.35.39,1.12,0,1.92-.18,2.42-.53.49-.35.74-.82.74-1.4,0-.43-.14-.77-.41-1.02-.28-.25-.64-.43-1.09-.56-.45-.13-.95-.24-1.5-.32-.55-.09-1.1-.19-1.64-.31-.54-.12-1.04-.29-1.49-.53-.45-.23-.81-.55-1.09-.95-.28-.4-.41-.94-.41-1.61s.18-1.22.54-1.72c.36-.51.88-.91,1.58-1.2.69-.29,1.54-.44,2.54-.44.76,0,1.52.1,2.28.3.76.2,1.39.47,1.88.79l-.69,1.28c-.52-.36-1.08-.62-1.68-.77-.6-.16-1.19-.24-1.79-.24-1.06,0-1.84.18-2.34.55-.5.37-.75.83-.75,1.4,0,.45.14.8.41,1.05.28.25.64.45,1.1.59.45.14.95.26,1.5.35.54.09,1.09.2,1.63.32.54.13,1.04.3,1.5.51.45.22.82.52,1.1.92.28.4.41.91.41,1.56,0,.69-.19,1.28-.57,1.78-.38.5-.93.89-1.66,1.16s-1.6.41-2.63.41Z"/>
      </g>
    </g>
  </g>
</svg>